<svg id="ws_grad_4" xmlns="http://www.w3.org/2000/svg" xmlns:xlink="http://www.w3.org/1999/xlink" viewBox="0 0 808 303" shape-rendering="geometricPrecision" text-rendering="geometricPrecision" width="808" height="303"><defs><linearGradient id="ws_grad_4-s-rect4-fill" x1="-1.992899" y1="1.072501" x2="2.919592" y2="0.267868" spreadMethod="pad" gradientUnits="objectBoundingBox" gradientTransform="translate(0 0)"><stop id="ws_grad_4-s-rect4-fill-0" offset="0%" stop-color="#51caec"/><stop id="ws_grad_4-s-rect4-fill-1" offset="100%" stop-color="#7928ce"/></linearGradient><linearGradient id="ws_grad_4-u-seg3-fill" x1="0.195616" y1="0.331747" x2="3.335279" y2="1.181874" spreadMethod="pad" gradientUnits="objectBoundingBox" gradientTransform="translate(0 0)"><stop id="ws_grad_4-u-seg3-fill-0" offset="0%" stop-color="#40d5ff"/><stop id="ws_grad_4-u-seg3-fill-1" offset="100%" stop-color="#c329ea"/></linearGradient><linearGradient id="ws_grad_4-u-seg4-fill" x1="-0.132934" y1="0.246638" x2="2.699204" y2="1.37176" spreadMethod="pad" gradientUnits="objectBoundingBox" gradientTransform="translate(0 0)"><stop id="ws_grad_4-u-seg4-fill-0" offset="0%" stop-color="#40d5ff"/><stop id="ws_grad_4-u-seg4-fill-1" offset="100%" stop-color="#c329ea"/></linearGradient><linearGradient id="ws_grad_4-u-seg_small2-fill" x1="-0.781923" y1="0.342844" x2="2.461128" y2="2.214877" spreadMethod="pad" gradientUnits="objectBoundingBox" gradientTransform="translate(0 0)"><stop id="ws_grad_4-u-seg_small2-fill-0" offset="0%" stop-color="#40d5ff"/><stop id="ws_grad_4-u-seg_small2-fill-1" offset="100%" stop-color="#c329ea"/></linearGradient><linearGradient id="ws_grad_4-s-rect6-fill" x1="-3.456181" y1="1.16289" x2="1.029604" y2="2.943976" spreadMethod="pad" gradientUnits="objectBoundingBox" gradientTransform="translate(0 0)"><stop id="ws_grad_4-s-rect6-fill-0" offset="0%" stop-color="#3fc1e5"/><stop id="ws_grad_4-s-rect6-fill-1" offset="100%" stop-color="#db12e0"/></linearGradient><linearGradient id="ws_grad_4-u-s_seg3-fill" x1="-1.947757" y1="-0.256288" x2="0.689295" y2="1.42092" spreadMethod="pad" gradientUnits="objectBoundingBox" gradientTransform="translate(0 0)"><stop id="ws_grad_4-u-s_seg3-fill-0" offset="0%" stop-color="#40d5ff"/><stop id="ws_grad_4-u-s_seg3-fill-1" offset="100%" stop-color="#f510ef"/></linearGradient><linearGradient id="ws_grad_4-u-s_seg4-fill" x1="3.03031" y1="1.687725" x2="0.399384" y2="-0.971626" spreadMethod="pad" gradientUnits="objectBoundingBox" gradientTransform="translate(0 0)"><stop id="ws_grad_4-u-s_seg4-fill-0" offset="0%" stop-color="#40d5ff"/><stop id="ws_grad_4-u-s_seg4-fill-1" offset="100%" stop-color="#f906e6"/></linearGradient><linearGradient id="ws_grad_4-s-rect7-fill" x1="-1.992899" y1="1.072501" x2="3.756407" y2="0.361667" spreadMethod="pad" gradientUnits="objectBoundingBox" gradientTransform="translate(0 0)"><stop id="ws_grad_4-s-rect7-fill-0" offset="0%" stop-color="#51caec"/><stop id="ws_grad_4-s-rect7-fill-1" offset="100%" stop-color="#4e28ce"/></linearGradient><linearGradient id="ws_grad_4-u-seg5-fill" x1="0.195616" y1="0.331747" x2="3.335279" y2="1.181874" spreadMethod="pad" gradientUnits="objectBoundingBox" gradientTransform="translate(0 0)"><stop id="ws_grad_4-u-seg5-fill-0" offset="0%" stop-color="#40d5ff"/><stop id="ws_grad_4-u-seg5-fill-1" offset="100%" stop-color="#5f29ea"/></linearGradient><linearGradient id="ws_grad_4-u-seg6-fill" x1="-0.132934" y1="0.246638" x2="2.699204" y2="1.37176" spreadMethod="pad" gradientUnits="objectBoundingBox" gradientTransform="translate(0 0)"><stop id="ws_grad_4-u-seg6-fill-0" offset="0%" stop-color="#40d5ff"/><stop id="ws_grad_4-u-seg6-fill-1" offset="100%" stop-color="#7329ea"/></linearGradient><linearGradient id="ws_grad_4-u-seg_small3-fill" x1="-0.781923" y1="0.342844" x2="3.401564" y2="2.28356" spreadMethod="pad" gradientUnits="objectBoundingBox" gradientTransform="translate(0 0)"><stop id="ws_grad_4-u-seg_small3-fill-0" offset="0%" stop-color="#40d5ff"/><stop id="ws_grad_4-u-seg_small3-fill-1" offset="100%" stop-color="#6e29ea"/></linearGradient><linearGradient id="ws_grad_4-s-rect9-fill" x1="-3.456181" y1="1.16289" x2="1.029604" y2="2.943976" spreadMethod="pad" gradientUnits="objectBoundingBox" gradientTransform="translate(0 0)"><stop id="ws_grad_4-s-rect9-fill-0" offset="0%" stop-color="#e0c13d"/><stop id="ws_grad_4-s-rect9-fill-1" offset="100%" stop-color="#e012ca"/></linearGradient><linearGradient id="ws_grad_4-u-s_seg5-fill" x1="-2.008034" y1="-1.485111" x2="0.866894" y2="1.5773" spreadMethod="pad" gradientUnits="objectBoundingBox" gradientTransform="translate(0 0)"><stop id="ws_grad_4-u-s_seg5-fill-0" offset="0%" stop-color="#f1ff40"/><stop id="ws_grad_4-u-s_seg5-fill-1" offset="100%" stop-color="#f510dd"/></linearGradient><linearGradient id="ws_grad_4-u-s_seg6-fill" x1="3.155644" y1="2.133905" x2="0.399384" y2="-0.971626" spreadMethod="pad" gradientUnits="objectBoundingBox" gradientTransform="translate(0 0)"><stop id="ws_grad_4-u-s_seg6-fill-0" offset="0%" stop-color="#f1ff40"/><stop id="ws_grad_4-u-s_seg6-fill-1" offset="100%" stop-color="#f906e6"/></linearGradient></defs><g id="ws_grad_4-u-ws" transform="translate(.000001 0)"><g id="ws_grad_4-u-w" transform="translate(.000001 0.000001)"><rect id="ws_grad_4-s-rect1" width="58.920444" height="77.104335" rx="0" ry="0" transform="matrix(1.19219 1.19219-1.441069 1.441069 419.962993 94.707473)" fill="#9867ba" stroke-width="0"/><path id="ws_grad_4-u-seg" d="M20.80717,86.22537C6.74027,61.86078,15.08819,30.70591,39.45278,16.63901s55.51946-5.71898,69.58636,18.64561c.00682.01181.01363.02362.02044.03543l103.9222,179.99851c.00689.01191.01377.02381.02065.03573c14.0669,24.36459,5.71898,55.51946-18.64561,69.58636s-55.51946,5.71898-69.58636-18.64561c-.00672-.01163-.01343-.02326-.02013-.0349L20.82752,86.26057c-.00678-.01173-.01356-.02346-.02034-.0352h-.00001Z" transform="translate(-.804234-.789717)" fill="#7de1eb" stroke-width="0"/><path id="ws_grad_4-u-seg2" d="M20.80717,86.22537C6.74027,61.86078,15.08819,30.70591,39.45278,16.63901s55.51946-5.71898,69.58636,18.64561c.00682.01181.01363.02362.02044.03543l103.9222,179.99851c.00689.01191.01377.02381.02065.03573c14.0669,24.36459,5.71898,55.51946-18.64561,69.58636s-55.51946,5.71898-69.58636-18.64561c-.00672-.01163-.01343-.02326-.02013-.0349L20.82752,86.26057c-.00678-.01173-.01356-.02346-.02034-.0352h-.00001Z" transform="translate(174.195766-.789717)" fill="#9687e4" stroke-width="0"/><path id="ws_grad_4-u-seg_small" d="M20.80717,86.22537C6.74027,61.86078,15.08819,30.70591,39.45278,16.63901s55.51946-5.71898,69.58636,18.64561c.00682.01181.01363.02362.02044.03543l40.9222,69.99851c.00689.01191.01377.02381.02065.03573c14.0669,24.36459,5.71898,55.51946-18.64561,69.58636s-55.51946,5.71898-69.58636-18.64561c-.00672-.01163-.01343-.02326-.02013-.0349L20.82752,86.26057c-.00678-.01173-.01356-.02346-.02034-.0352h-.00001Z" transform="translate(347.195766-.789717)" fill="#cb9df2" stroke-width="0"/></g><g id="ws_grad_4-u-s"><rect id="ws_grad_4-s-rect3" width="167.612475" height="74.316523" rx="0" ry="0" transform="matrix(.965926 0.258819-.258819 0.965926 581.927536 93.167574)" fill="#a96398" stroke-width="0"/><path id="ws_grad_4-u-s_seg" d="M666.6729,290.98317c-.00415,0-.00831,0-.01246,0s-.00831,0-.01246,0c-15.66312,0-94.12608,0-94.12685,0-24.94769,0-45.17179-20.22409-45.1718-45.17179v-.00001c.00001-24.94769,20.2241-45.17179,45.1718-45.17179.00086,0,.00173,0,.00259,0h76.02994l51.55338-52.32696c.00061-.00061.00123-.00123.00184-.00184c17.68893-17.68893,46.27258-17.78471,63.84337-.21392l.00001.00001c17.57078,17.57079,17.47501,46.15444-.21392,63.84337-.00061.00061-.00123.00123-.00184.00184l-61.94779,62.87734c-7.9379,9.25916-19.47318,15.34362-32.43937,16.08689" transform="translate(0 0.000001)" fill="#d568b4" stroke-width="0"/><path id="ws_grad_4-u-s_seg2" d="M666.6729,290.98317c-.00415,0-.00831,0-.01246,0s-.00831,0-.01246,0c-15.66312,0-94.12608,0-94.12685,0-24.94769,0-45.17179-20.22409-45.1718-45.17179v-.00001c.00001-24.94769,20.2241-45.17179,45.1718-45.17179.00086,0,.00173,0,.00259,0h76.02994l51.55338-52.32696c.00061-.00061.00123-.00123.00184-.00184c17.68893-17.68893,46.27258-17.78471,63.84337-.21392l.00001.00001c17.57078,17.57079,17.47501,46.15444-.21392,63.84337-.00061.00061-.00123.00123-.00184.00184l-61.94779,62.87734c-7.9379,9.25916-19.47318,15.34362-32.43937,16.08689" transform="matrix(-1 0 0-1 1304.417018 300.964585)" fill="#f88fe0" stroke-width="0"/></g><ellipse id="ws_grad_4-u-dot" rx="5.998615" ry="5.998615" transform="matrix(1.203698 0 0 1.203698 168.025253 240.9423)" fill="#fff" stroke="#7a7a7a"/><ellipse id="ws_grad_4-u-dot2" rx="5.998615" ry="5.998615" transform="matrix(1.203698 0 0 1.203698 344.025253 240.9423)" fill="#fff" stroke="#7a7a7a"/><ellipse id="ws_grad_4-u-dot3" rx="5.998615" ry="5.998615" transform="matrix(1.203698 0 0 1.203698 455.025253 130.9423)" fill="#fff" stroke="#7a7a7a"/><ellipse id="ws_grad_4-u-dot4" rx="5.998615" ry="5.998615" transform="matrix(1.203698 0 0 1.203698 571.025253 122.9423)" fill="#fff" stroke="#7a7a7a"/><ellipse id="ws_grad_4-u-dot5" rx="5.998615" ry="5.998615" transform="matrix(1.203698 0 0 1.203698 735.025253 176.9423)" fill="#fff" stroke="#7a7a7a"/></g><g id="ws_grad_4-u-ws-grad" transform="translate(.000001 0)"><g id="ws_grad_4-u-ws2" transform="translate(.000001 0)"><g id="ws_grad_4-u-w2" transform="translate(.000001 0.000001)"><rect id="ws_grad_4-s-rect4" width="58.920444" height="77.104335" rx="0" ry="0" transform="matrix(1.19219 1.19219-1.441069 1.441069 419.962993 94.707473)" fill="url(#ws_grad_4-s-rect4-fill)" stroke-width="0" stroke-miterlimit="40"/><path id="ws_grad_4-u-seg3" d="M20.80717,86.22537C6.74027,61.86078,15.08819,30.70591,39.45278,16.63901s55.51946-5.71898,69.58636,18.64561c.00682.01181.01363.02362.02044.03543l103.9222,179.99851c.00689.01191.01377.02381.02065.03573c14.0669,24.36459,5.71898,55.51946-18.64561,69.58636s-55.51946,5.71898-69.58636-18.64561c-.00672-.01163-.01343-.02326-.02013-.0349L20.82752,86.26057c-.00678-.01173-.01356-.02346-.02034-.0352h-.00001Z" transform="translate(-.804234-.789717)" fill="url(#ws_grad_4-u-seg3-fill)" stroke-width="0" stroke-miterlimit="40"/><path id="ws_grad_4-u-seg4" d="M20.80717,86.22537C6.74027,61.86078,15.08819,30.70591,39.45278,16.63901s55.51946-5.71898,69.58636,18.64561c.00682.01181.01363.02362.02044.03543l103.9222,179.99851c.00689.01191.01377.02381.02065.03573c14.0669,24.36459,5.71898,55.51946-18.64561,69.58636s-55.51946,5.71898-69.58636-18.64561c-.00672-.01163-.01343-.02326-.02013-.0349L20.82752,86.26057c-.00678-.01173-.01356-.02346-.02034-.0352h-.00001Z" transform="translate(174.195766-.789717)" fill="url(#ws_grad_4-u-seg4-fill)" stroke-width="0" stroke-miterlimit="40"/><path id="ws_grad_4-u-seg_small2" d="M20.80717,86.22537C6.74027,61.86078,15.08819,30.70591,39.45278,16.63901s55.51946-5.71898,69.58636,18.64561c.00682.01181.01363.02362.02044.03543l40.9222,69.99851c.00689.01191.01377.02381.02065.03573c14.0669,24.36459,5.71898,55.51946-18.64561,69.58636s-55.51946,5.71898-69.58636-18.64561c-.00672-.01163-.01343-.02326-.02013-.0349L20.82752,86.26057c-.00678-.01173-.01356-.02346-.02034-.0352h-.00001Z" transform="translate(347.195766-.789717)" fill="url(#ws_grad_4-u-seg_small2-fill)" stroke-width="0" stroke-miterlimit="40"/></g><g id="ws_grad_4-u-s2"><rect id="ws_grad_4-s-rect6" width="167.612475" height="74.316523" rx="0" ry="0" transform="matrix(.965926 0.258819-.258819 0.965926 581.927536 93.167574)" fill="url(#ws_grad_4-s-rect6-fill)" stroke-width="0" stroke-miterlimit="40"/><path id="ws_grad_4-u-s_seg3" d="M666.6729,290.98317c-.00415,0-.00831,0-.01246,0s-.00831,0-.01246,0c-15.66312,0-94.12608,0-94.12685,0-24.94769,0-45.17179-20.22409-45.1718-45.17179v-.00001c.00001-24.94769,20.2241-45.17179,45.1718-45.17179.00086,0,.00173,0,.00259,0h76.02994l51.55338-52.32696c.00061-.00061.00123-.00123.00184-.00184c17.68893-17.68893,46.27258-17.78471,63.84337-.21392l.00001.00001c17.57078,17.57079,17.47501,46.15444-.21392,63.84337-.00061.00061-.00123.00123-.00184.00184l-61.94779,62.87734c-7.9379,9.25916-19.47318,15.34362-32.43937,16.08689" transform="translate(0 0.000001)" fill="url(#ws_grad_4-u-s_seg3-fill)" stroke-width="0" stroke-miterlimit="40"/><path id="ws_grad_4-u-s_seg4" d="M666.6729,290.98317c-.00415,0-.00831,0-.01246,0s-.00831,0-.01246,0c-15.66312,0-94.12608,0-94.12685,0-24.94769,0-45.17179-20.22409-45.1718-45.17179v-.00001c.00001-24.94769,20.2241-45.17179,45.1718-45.17179.00086,0,.00173,0,.00259,0h76.02994l51.55338-52.32696c.00061-.00061.00123-.00123.00184-.00184c17.68893-17.68893,46.27258-17.78471,63.84337-.21392l.00001.00001c17.57078,17.57079,17.47501,46.15444-.21392,63.84337-.00061.00061-.00123.00123-.00184.00184l-61.94779,62.87734c-7.9379,9.25916-19.47318,15.34362-32.43937,16.08689" transform="matrix(-1 0 0-1 1304.417018 300.964585)" fill="url(#ws_grad_4-u-s_seg4-fill)" stroke-width="0" stroke-miterlimit="40"/></g></g><ellipse id="ws_grad_4-u-dot6" rx="5.998615" ry="5.998615" transform="matrix(1.203698 0 0 1.203698 168.025253 240.9423)" fill="#fff" stroke="#7a7a7a"/><ellipse id="ws_grad_4-u-dot7" rx="5.998615" ry="5.998615" transform="matrix(1.203698 0 0 1.203698 344.025253 240.9423)" fill="#fff" stroke="#7a7a7a"/><ellipse id="ws_grad_4-u-dot8" rx="5.998615" ry="5.998615" transform="matrix(1.203698 0 0 1.203698 455.025253 130.9423)" fill="#fff" stroke="#7a7a7a"/><ellipse id="ws_grad_4-u-dot9" rx="5.998615" ry="5.998615" transform="matrix(1.203698 0 0 1.203698 571.025253 122.9423)" fill="#fff" stroke="#7a7a7a"/><ellipse id="ws_grad_4-u-dot10" rx="5.998615" ry="5.998615" transform="matrix(1.203698 0 0 1.203698 735.025253 176.9423)" fill="#fff" stroke="#7a7a7a"/></g><g id="ws_grad_4-u-ws-grad-sat" transform="translate(.000001 0)"><g id="ws_grad_4-u-ws3" transform="translate(.000001 0)"><g id="ws_grad_4-u-w3" transform="translate(.000001 0.000001)"><rect id="ws_grad_4-s-rect7" width="58.920444" height="77.104335" rx="0" ry="0" transform="matrix(1.19219 1.19219-1.441069 1.441069 419.962993 94.707473)" fill="url(#ws_grad_4-s-rect7-fill)" stroke-width="0" stroke-miterlimit="40"/><path id="ws_grad_4-u-seg5" d="M20.80717,86.22537C6.74027,61.86078,15.08819,30.70591,39.45278,16.63901s55.51946-5.71898,69.58636,18.64561c.00682.01181.01363.02362.02044.03543l103.9222,179.99851c.00689.01191.01377.02381.02065.03573c14.0669,24.36459,5.71898,55.51946-18.64561,69.58636s-55.51946,5.71898-69.58636-18.64561c-.00672-.01163-.01343-.02326-.02013-.0349L20.82752,86.26057c-.00678-.01173-.01356-.02346-.02034-.0352h-.00001Z" transform="translate(-.804234-.789717)" fill="url(#ws_grad_4-u-seg5-fill)" stroke-width="0" stroke-miterlimit="40"/><path id="ws_grad_4-u-seg6" d="M20.80717,86.22537C6.74027,61.86078,15.08819,30.70591,39.45278,16.63901s55.51946-5.71898,69.58636,18.64561c.00682.01181.01363.02362.02044.03543l103.9222,179.99851c.00689.01191.01377.02381.02065.03573c14.0669,24.36459,5.71898,55.51946-18.64561,69.58636s-55.51946,5.71898-69.58636-18.64561c-.00672-.01163-.01343-.02326-.02013-.0349L20.82752,86.26057c-.00678-.01173-.01356-.02346-.02034-.0352h-.00001Z" transform="translate(174.195766-.789717)" fill="url(#ws_grad_4-u-seg6-fill)" stroke-width="0" stroke-miterlimit="40"/><path id="ws_grad_4-u-seg_small3" d="M20.80717,86.22537C6.74027,61.86078,15.08819,30.70591,39.45278,16.63901s55.51946-5.71898,69.58636,18.64561c.00682.01181.01363.02362.02044.03543l40.9222,69.99851c.00689.01191.01377.02381.02065.03573c14.0669,24.36459,5.71898,55.51946-18.64561,69.58636s-55.51946,5.71898-69.58636-18.64561c-.00672-.01163-.01343-.02326-.02013-.0349L20.82752,86.26057c-.00678-.01173-.01356-.02346-.02034-.0352h-.00001Z" transform="translate(347.195766-.789717)" fill="url(#ws_grad_4-u-seg_small3-fill)" stroke-width="0" stroke-miterlimit="40"/></g><g id="ws_grad_4-u-s3"><rect id="ws_grad_4-s-rect9" width="167.612475" height="74.316523" rx="0" ry="0" transform="matrix(.965926 0.258819-.258819 0.965926 581.927536 93.167574)" fill="url(#ws_grad_4-s-rect9-fill)" stroke-width="0" stroke-miterlimit="40"/><path id="ws_grad_4-u-s_seg5" d="M666.6729,290.98317c-.00415,0-.00831,0-.01246,0s-.00831,0-.01246,0c-15.66312,0-94.12608,0-94.12685,0-24.94769,0-45.17179-20.22409-45.1718-45.17179v-.00001c.00001-24.94769,20.2241-45.17179,45.1718-45.17179.00086,0,.00173,0,.00259,0h76.02994l51.55338-52.32696c.00061-.00061.00123-.00123.00184-.00184c17.68893-17.68893,46.27258-17.78471,63.84337-.21392l.00001.00001c17.57078,17.57079,17.47501,46.15444-.21392,63.84337-.00061.00061-.00123.00123-.00184.00184l-61.94779,62.87734c-7.9379,9.25916-19.47318,15.34362-32.43937,16.08689" transform="translate(0 0.000001)" fill="url(#ws_grad_4-u-s_seg5-fill)" stroke-width="0" stroke-miterlimit="40"/><path id="ws_grad_4-u-s_seg6" d="M666.6729,290.98317c-.00415,0-.00831,0-.01246,0s-.00831,0-.01246,0c-15.66312,0-94.12608,0-94.12685,0-24.94769,0-45.17179-20.22409-45.1718-45.17179v-.00001c.00001-24.94769,20.2241-45.17179,45.1718-45.17179.00086,0,.00173,0,.00259,0h76.02994l51.55338-52.32696c.00061-.00061.00123-.00123.00184-.00184c17.68893-17.68893,46.27258-17.78471,63.84337-.21392l.00001.00001c17.57078,17.57079,17.47501,46.15444-.21392,63.84337-.00061.00061-.00123.00123-.00184.00184l-61.94779,62.87734c-7.9379,9.25916-19.47318,15.34362-32.43937,16.08689" transform="matrix(-1 0 0-1 1304.417018 300.964585)" fill="url(#ws_grad_4-u-s_seg6-fill)" stroke-width="0" stroke-miterlimit="40"/></g></g><ellipse id="ws_grad_4-u-dot11" rx="5.998615" ry="5.998615" transform="matrix(1.203698 0 0 1.203698 168.025253 240.9423)" fill="#fff" stroke="#7a7a7a"/><ellipse id="ws_grad_4-u-dot12" rx="5.998615" ry="5.998615" transform="matrix(1.203698 0 0 1.203698 344.025253 240.9423)" fill="#fff" stroke="#7a7a7a"/><ellipse id="ws_grad_4-u-dot13" rx="5.998615" ry="5.998615" transform="matrix(1.203698 0 0 1.203698 455.025253 130.9423)" fill="#fff" stroke="#7a7a7a"/><ellipse id="ws_grad_4-u-dot14" rx="5.998615" ry="5.998615" transform="matrix(1.203698 0 0 1.203698 571.025253 122.9423)" fill="#fff" stroke="#7a7a7a"/><ellipse id="ws_grad_4-u-dot15" rx="5.998615" ry="5.998615" transform="matrix(1.203698 0 0 1.203698 735.025253 176.9423)" fill="#fff" stroke="#7a7a7a"/></g></svg>
